<mxfile host="app.diagrams.net" modified="2024-03-16T19:41:08.879Z" agent="Mozilla/5.0 (Windows NT 10.0; Win64; x64) AppleWebKit/537.36 (KHTML, like Gecko) Chrome/122.0.0.0 Safari/537.36" etag="254bdHhwU5_u78WTZIHg" version="24.0.6" type="device">
  <diagram name="Страница — 1" id="Cy8QLNytjA-2ubOcpx3c">
    <mxGraphModel dx="1381" dy="696" grid="1" gridSize="10" guides="1" tooltips="1" connect="1" arrows="1" fold="1" page="1" pageScale="1" pageWidth="3300" pageHeight="4681" math="0" shadow="0">
      <root>
        <mxCell id="0" />
        <mxCell id="1" parent="0" />
        <mxCell id="I2EmGqrL0BdVojSCtv7N-1" value="Авторизация" style="rounded=1;whiteSpace=wrap;html=1;" vertex="1" parent="1">
          <mxGeometry x="870" y="2090" width="90" height="40" as="geometry" />
        </mxCell>
        <mxCell id="I2EmGqrL0BdVojSCtv7N-2" style="edgeStyle=orthogonalEdgeStyle;rounded=0;orthogonalLoop=1;jettySize=auto;html=1;dashed=1;endArrow=none;endFill=0;" edge="1" parent="1" source="I2EmGqrL0BdVojSCtv7N-3" target="I2EmGqrL0BdVojSCtv7N-5">
          <mxGeometry relative="1" as="geometry" />
        </mxCell>
        <mxCell id="I2EmGqrL0BdVojSCtv7N-3" value="Сотрудник магазина" style="shape=umlActor;verticalLabelPosition=bottom;verticalAlign=top;html=1;outlineConnect=0;" vertex="1" parent="1">
          <mxGeometry x="1030" y="1890" width="30" height="60" as="geometry" />
        </mxCell>
        <mxCell id="I2EmGqrL0BdVojSCtv7N-4" style="edgeStyle=orthogonalEdgeStyle;rounded=0;orthogonalLoop=1;jettySize=auto;html=1;entryX=-0.007;entryY=0.1;entryDx=0;entryDy=0;exitX=1;exitY=0.1;exitDx=0;exitDy=0;exitPerimeter=0;entryPerimeter=0;" edge="1" parent="1" source="I2EmGqrL0BdVojSCtv7N-5" target="I2EmGqrL0BdVojSCtv7N-8">
          <mxGeometry relative="1" as="geometry" />
        </mxCell>
        <mxCell id="I2EmGqrL0BdVojSCtv7N-5" value="" style="rounded=0;whiteSpace=wrap;html=1;" vertex="1" parent="1">
          <mxGeometry x="1040" y="2010" width="10" height="200" as="geometry" />
        </mxCell>
        <mxCell id="I2EmGqrL0BdVojSCtv7N-6" style="edgeStyle=orthogonalEdgeStyle;rounded=0;orthogonalLoop=1;jettySize=auto;html=1;entryX=0.5;entryY=0;entryDx=0;entryDy=0;dashed=1;endArrow=none;endFill=0;" edge="1" parent="1" source="I2EmGqrL0BdVojSCtv7N-7" target="I2EmGqrL0BdVojSCtv7N-8">
          <mxGeometry relative="1" as="geometry" />
        </mxCell>
        <mxCell id="I2EmGqrL0BdVojSCtv7N-7" value="Клиент" style="rounded=1;whiteSpace=wrap;html=1;" vertex="1" parent="1">
          <mxGeometry x="1200" y="1900" width="90" height="40" as="geometry" />
        </mxCell>
        <mxCell id="I2EmGqrL0BdVojSCtv7N-8" value="" style="rounded=0;whiteSpace=wrap;html=1;" vertex="1" parent="1">
          <mxGeometry x="1240" y="2010" width="10" height="200" as="geometry" />
        </mxCell>
        <mxCell id="I2EmGqrL0BdVojSCtv7N-9" value="Сервер" style="rounded=1;whiteSpace=wrap;html=1;" vertex="1" parent="1">
          <mxGeometry x="1400" y="1900" width="90" height="40" as="geometry" />
        </mxCell>
        <mxCell id="I2EmGqrL0BdVojSCtv7N-10" value="" style="rounded=0;whiteSpace=wrap;html=1;" vertex="1" parent="1">
          <mxGeometry x="1440" y="2010" width="10" height="200" as="geometry" />
        </mxCell>
        <mxCell id="I2EmGqrL0BdVojSCtv7N-11" value="БД" style="rounded=1;whiteSpace=wrap;html=1;" vertex="1" parent="1">
          <mxGeometry x="1600" y="1900" width="90" height="40" as="geometry" />
        </mxCell>
        <mxCell id="I2EmGqrL0BdVojSCtv7N-12" style="edgeStyle=orthogonalEdgeStyle;rounded=0;orthogonalLoop=1;jettySize=auto;html=1;exitX=0;exitY=0.75;exitDx=0;exitDy=0;entryX=0.995;entryY=0.851;entryDx=0;entryDy=0;entryPerimeter=0;dashed=1;endArrow=open;endFill=0;" edge="1" parent="1" target="I2EmGqrL0BdVojSCtv7N-10">
          <mxGeometry relative="1" as="geometry">
            <mxPoint x="1644.0000000000005" y="2180.04" as="sourcePoint" />
            <mxPoint x="1454" y="2180.84" as="targetPoint" />
            <Array as="points">
              <mxPoint x="1544" y="2180" />
            </Array>
          </mxGeometry>
        </mxCell>
        <mxCell id="I2EmGqrL0BdVojSCtv7N-13" value="" style="rounded=0;whiteSpace=wrap;html=1;" vertex="1" parent="1">
          <mxGeometry x="1640" y="2080" width="10" height="120" as="geometry" />
        </mxCell>
        <mxCell id="I2EmGqrL0BdVojSCtv7N-14" style="edgeStyle=orthogonalEdgeStyle;rounded=0;orthogonalLoop=1;jettySize=auto;html=1;entryX=0.5;entryY=0;entryDx=0;entryDy=0;dashed=1;endArrow=none;endFill=0;" edge="1" parent="1">
          <mxGeometry relative="1" as="geometry">
            <mxPoint x="1444.62" y="1940" as="sourcePoint" />
            <mxPoint x="1444.62" y="2010" as="targetPoint" />
          </mxGeometry>
        </mxCell>
        <mxCell id="I2EmGqrL0BdVojSCtv7N-15" style="edgeStyle=orthogonalEdgeStyle;rounded=0;orthogonalLoop=1;jettySize=auto;html=1;dashed=1;endArrow=none;endFill=0;entryX=0.5;entryY=0;entryDx=0;entryDy=0;" edge="1" parent="1" target="I2EmGqrL0BdVojSCtv7N-13">
          <mxGeometry relative="1" as="geometry">
            <mxPoint x="1644.62" y="1940" as="sourcePoint" />
            <mxPoint x="1645" y="2060" as="targetPoint" />
          </mxGeometry>
        </mxCell>
        <mxCell id="I2EmGqrL0BdVojSCtv7N-16" style="edgeStyle=orthogonalEdgeStyle;rounded=0;orthogonalLoop=1;jettySize=auto;html=1;entryX=-0.007;entryY=0.1;entryDx=0;entryDy=0;exitX=1;exitY=0.1;exitDx=0;exitDy=0;exitPerimeter=0;entryPerimeter=0;" edge="1" parent="1">
          <mxGeometry relative="1" as="geometry">
            <mxPoint x="1250" y="2049.63" as="sourcePoint" />
            <mxPoint x="1440" y="2049.63" as="targetPoint" />
          </mxGeometry>
        </mxCell>
        <mxCell id="I2EmGqrL0BdVojSCtv7N-17" style="edgeStyle=orthogonalEdgeStyle;rounded=0;orthogonalLoop=1;jettySize=auto;html=1;entryX=-0.007;entryY=0.1;entryDx=0;entryDy=0;exitX=1;exitY=0.1;exitDx=0;exitDy=0;exitPerimeter=0;entryPerimeter=0;" edge="1" parent="1">
          <mxGeometry relative="1" as="geometry">
            <mxPoint x="1450" y="2130" as="sourcePoint" />
            <mxPoint x="1640" y="2130" as="targetPoint" />
          </mxGeometry>
        </mxCell>
        <mxCell id="I2EmGqrL0BdVojSCtv7N-18" style="edgeStyle=orthogonalEdgeStyle;rounded=0;orthogonalLoop=1;jettySize=auto;html=1;exitX=1;exitY=0.1;exitDx=0;exitDy=0;exitPerimeter=0;" edge="1" parent="1">
          <mxGeometry relative="1" as="geometry">
            <mxPoint x="1450" y="2049.63" as="sourcePoint" />
            <mxPoint x="1450" y="2070" as="targetPoint" />
            <Array as="points">
              <mxPoint x="1540" y="2050" />
              <mxPoint x="1540" y="2070" />
              <mxPoint x="1450" y="2070" />
            </Array>
          </mxGeometry>
        </mxCell>
        <mxCell id="I2EmGqrL0BdVojSCtv7N-19" value="" style="rounded=0;whiteSpace=wrap;html=1;" vertex="1" parent="1">
          <mxGeometry x="1644" y="2120" width="16" height="60" as="geometry" />
        </mxCell>
        <mxCell id="I2EmGqrL0BdVojSCtv7N-20" style="edgeStyle=orthogonalEdgeStyle;rounded=0;orthogonalLoop=1;jettySize=auto;html=1;exitX=1;exitY=0.1;exitDx=0;exitDy=0;exitPerimeter=0;" edge="1" parent="1">
          <mxGeometry relative="1" as="geometry">
            <mxPoint x="1660" y="2129.85" as="sourcePoint" />
            <mxPoint x="1660" y="2150.2200000000003" as="targetPoint" />
            <Array as="points">
              <mxPoint x="1750" y="2130.2200000000003" />
              <mxPoint x="1750" y="2150.2200000000003" />
              <mxPoint x="1660" y="2150.2200000000003" />
            </Array>
          </mxGeometry>
        </mxCell>
        <mxCell id="I2EmGqrL0BdVojSCtv7N-21" style="edgeStyle=orthogonalEdgeStyle;rounded=0;orthogonalLoop=1;jettySize=auto;html=1;exitX=0;exitY=0.75;exitDx=0;exitDy=0;entryX=0.992;entryY=0.899;entryDx=0;entryDy=0;entryPerimeter=0;dashed=1;endArrow=open;endFill=0;" edge="1" parent="1" target="I2EmGqrL0BdVojSCtv7N-8">
          <mxGeometry relative="1" as="geometry">
            <mxPoint x="1440" y="2190" as="sourcePoint" />
            <mxPoint x="1250" y="2191" as="targetPoint" />
          </mxGeometry>
        </mxCell>
        <mxCell id="I2EmGqrL0BdVojSCtv7N-22" style="edgeStyle=orthogonalEdgeStyle;rounded=0;orthogonalLoop=1;jettySize=auto;html=1;exitX=0;exitY=0.75;exitDx=0;exitDy=0;entryX=1.034;entryY=0.993;entryDx=0;entryDy=0;entryPerimeter=0;dashed=1;endArrow=open;endFill=0;" edge="1" parent="1" target="I2EmGqrL0BdVojSCtv7N-5">
          <mxGeometry relative="1" as="geometry">
            <mxPoint x="1241" y="2208.52" as="sourcePoint" />
            <mxPoint x="1051" y="2209.52" as="targetPoint" />
          </mxGeometry>
        </mxCell>
        <mxCell id="I2EmGqrL0BdVojSCtv7N-23" value="Заполнение формы" style="text;html=1;strokeColor=none;fillColor=none;align=center;verticalAlign=middle;whiteSpace=wrap;rounded=0;" vertex="1" parent="1">
          <mxGeometry x="1080" y="2000" width="130" height="30" as="geometry" />
        </mxCell>
        <mxCell id="I2EmGqrL0BdVojSCtv7N-24" value="Проверка корректности введённых данных" style="text;html=1;strokeColor=none;fillColor=none;align=center;verticalAlign=middle;whiteSpace=wrap;rounded=0;" vertex="1" parent="1">
          <mxGeometry x="1480" y="2010" width="140" height="30" as="geometry" />
        </mxCell>
        <mxCell id="I2EmGqrL0BdVojSCtv7N-25" value="Поиск пользователя в базе" style="text;html=1;strokeColor=none;fillColor=none;align=center;verticalAlign=middle;whiteSpace=wrap;rounded=0;" vertex="1" parent="1">
          <mxGeometry x="1485" y="2095" width="130" height="30" as="geometry" />
        </mxCell>
        <mxCell id="I2EmGqrL0BdVojSCtv7N-26" value="Выборка из БД" style="text;html=1;strokeColor=none;fillColor=none;align=center;verticalAlign=middle;whiteSpace=wrap;rounded=0;" vertex="1" parent="1">
          <mxGeometry x="1680" y="2100" width="130" height="30" as="geometry" />
        </mxCell>
        <mxCell id="I2EmGqrL0BdVojSCtv7N-27" value="Найденное совпадение" style="text;html=1;strokeColor=none;fillColor=none;align=center;verticalAlign=middle;whiteSpace=wrap;rounded=0;" vertex="1" parent="1">
          <mxGeometry x="1480" y="2150" width="130" height="30" as="geometry" />
        </mxCell>
        <mxCell id="I2EmGqrL0BdVojSCtv7N-28" value="Результат" style="text;html=1;strokeColor=none;fillColor=none;align=center;verticalAlign=middle;whiteSpace=wrap;rounded=0;" vertex="1" parent="1">
          <mxGeometry x="1280" y="2160" width="130" height="30" as="geometry" />
        </mxCell>
        <mxCell id="I2EmGqrL0BdVojSCtv7N-29" value="Отображение главной страницы" style="text;html=1;strokeColor=none;fillColor=none;align=center;verticalAlign=middle;whiteSpace=wrap;rounded=0;" vertex="1" parent="1">
          <mxGeometry x="1080" y="2170" width="130" height="30" as="geometry" />
        </mxCell>
        <mxCell id="I2EmGqrL0BdVojSCtv7N-30" value="" style="endArrow=none;html=1;rounded=0;" edge="1" parent="1">
          <mxGeometry width="50" height="50" relative="1" as="geometry">
            <mxPoint x="840" y="2250" as="sourcePoint" />
            <mxPoint x="1800" y="2250" as="targetPoint" />
          </mxGeometry>
        </mxCell>
        <mxCell id="I2EmGqrL0BdVojSCtv7N-31" value="Сделать заказ" style="rounded=1;whiteSpace=wrap;html=1;" vertex="1" parent="1">
          <mxGeometry x="870" y="2430" width="90" height="40" as="geometry" />
        </mxCell>
        <mxCell id="I2EmGqrL0BdVojSCtv7N-32" value="" style="rounded=0;whiteSpace=wrap;html=1;" vertex="1" parent="1">
          <mxGeometry x="1040" y="2290" width="10" height="360" as="geometry" />
        </mxCell>
        <mxCell id="I2EmGqrL0BdVojSCtv7N-33" style="edgeStyle=orthogonalEdgeStyle;rounded=0;orthogonalLoop=1;jettySize=auto;html=1;entryX=0.5;entryY=0;entryDx=0;entryDy=0;dashed=1;endArrow=none;endFill=0;" edge="1" parent="1" target="I2EmGqrL0BdVojSCtv7N-32">
          <mxGeometry relative="1" as="geometry">
            <mxPoint x="1044.83" y="2210" as="sourcePoint" />
            <mxPoint x="1044.83" y="2280" as="targetPoint" />
          </mxGeometry>
        </mxCell>
        <mxCell id="I2EmGqrL0BdVojSCtv7N-34" value="" style="rounded=0;whiteSpace=wrap;html=1;" vertex="1" parent="1">
          <mxGeometry x="1240" y="2290" width="10" height="120" as="geometry" />
        </mxCell>
        <mxCell id="I2EmGqrL0BdVojSCtv7N-35" style="edgeStyle=orthogonalEdgeStyle;rounded=0;orthogonalLoop=1;jettySize=auto;html=1;entryX=-0.007;entryY=0.1;entryDx=0;entryDy=0;exitX=1;exitY=0.1;exitDx=0;exitDy=0;exitPerimeter=0;entryPerimeter=0;" edge="1" parent="1">
          <mxGeometry relative="1" as="geometry">
            <mxPoint x="1051" y="2310" as="sourcePoint" />
            <mxPoint x="1241" y="2310" as="targetPoint" />
          </mxGeometry>
        </mxCell>
        <mxCell id="I2EmGqrL0BdVojSCtv7N-36" value="Нажатие кнопки &quot;Сделать заказ&quot;" style="text;html=1;strokeColor=none;fillColor=none;align=center;verticalAlign=middle;whiteSpace=wrap;rounded=0;" vertex="1" parent="1">
          <mxGeometry x="1081" y="2280" width="130" height="30" as="geometry" />
        </mxCell>
        <mxCell id="I2EmGqrL0BdVojSCtv7N-37" value="" style="rounded=0;whiteSpace=wrap;html=1;" vertex="1" parent="1">
          <mxGeometry x="1440" y="2290" width="10" height="120" as="geometry" />
        </mxCell>
        <mxCell id="I2EmGqrL0BdVojSCtv7N-38" style="edgeStyle=orthogonalEdgeStyle;rounded=0;orthogonalLoop=1;jettySize=auto;html=1;entryX=-0.007;entryY=0.1;entryDx=0;entryDy=0;exitX=1;exitY=0.1;exitDx=0;exitDy=0;exitPerimeter=0;entryPerimeter=0;" edge="1" parent="1">
          <mxGeometry relative="1" as="geometry">
            <mxPoint x="1250" y="2320" as="sourcePoint" />
            <mxPoint x="1440" y="2320" as="targetPoint" />
          </mxGeometry>
        </mxCell>
        <mxCell id="I2EmGqrL0BdVojSCtv7N-39" value="Запрос для открытие формы" style="text;html=1;strokeColor=none;fillColor=none;align=center;verticalAlign=middle;whiteSpace=wrap;rounded=0;" vertex="1" parent="1">
          <mxGeometry x="1280" y="2290" width="130" height="30" as="geometry" />
        </mxCell>
        <mxCell id="I2EmGqrL0BdVojSCtv7N-40" style="edgeStyle=orthogonalEdgeStyle;rounded=0;orthogonalLoop=1;jettySize=auto;html=1;exitX=0;exitY=0.75;exitDx=0;exitDy=0;entryX=0.992;entryY=0.899;entryDx=0;entryDy=0;entryPerimeter=0;dashed=1;endArrow=open;endFill=0;" edge="1" parent="1">
          <mxGeometry relative="1" as="geometry">
            <mxPoint x="1440" y="2380" as="sourcePoint" />
            <mxPoint x="1250" y="2380" as="targetPoint" />
          </mxGeometry>
        </mxCell>
        <mxCell id="I2EmGqrL0BdVojSCtv7N-41" value="Открытие формы" style="text;html=1;strokeColor=none;fillColor=none;align=center;verticalAlign=middle;whiteSpace=wrap;rounded=0;" vertex="1" parent="1">
          <mxGeometry x="1280" y="2350" width="130" height="30" as="geometry" />
        </mxCell>
        <mxCell id="I2EmGqrL0BdVojSCtv7N-42" value="Отображение формы" style="text;html=1;strokeColor=none;fillColor=none;align=center;verticalAlign=middle;whiteSpace=wrap;rounded=0;" vertex="1" parent="1">
          <mxGeometry x="1081" y="2350" width="130" height="30" as="geometry" />
        </mxCell>
        <mxCell id="I2EmGqrL0BdVojSCtv7N-43" style="edgeStyle=orthogonalEdgeStyle;rounded=0;orthogonalLoop=1;jettySize=auto;html=1;exitX=0;exitY=0.75;exitDx=0;exitDy=0;entryX=0.992;entryY=0.899;entryDx=0;entryDy=0;entryPerimeter=0;dashed=1;endArrow=open;endFill=0;" edge="1" parent="1">
          <mxGeometry relative="1" as="geometry">
            <mxPoint x="1241" y="2380" as="sourcePoint" />
            <mxPoint x="1051" y="2380" as="targetPoint" />
          </mxGeometry>
        </mxCell>
        <mxCell id="I2EmGqrL0BdVojSCtv7N-44" style="edgeStyle=orthogonalEdgeStyle;rounded=0;orthogonalLoop=1;jettySize=auto;html=1;entryX=-0.007;entryY=0.1;entryDx=0;entryDy=0;exitX=1;exitY=0.1;exitDx=0;exitDy=0;exitPerimeter=0;entryPerimeter=0;" edge="1" parent="1">
          <mxGeometry relative="1" as="geometry">
            <mxPoint x="1051" y="2440" as="sourcePoint" />
            <mxPoint x="1241" y="2440" as="targetPoint" />
          </mxGeometry>
        </mxCell>
        <mxCell id="I2EmGqrL0BdVojSCtv7N-45" value="Нажатие кнопки &quot;Отправить заказ&quot;" style="text;html=1;strokeColor=none;fillColor=none;align=center;verticalAlign=middle;whiteSpace=wrap;rounded=0;" vertex="1" parent="1">
          <mxGeometry x="1081" y="2410" width="130" height="30" as="geometry" />
        </mxCell>
        <mxCell id="I2EmGqrL0BdVojSCtv7N-46" style="edgeStyle=orthogonalEdgeStyle;rounded=0;orthogonalLoop=1;jettySize=auto;html=1;entryX=-0.007;entryY=0.1;entryDx=0;entryDy=0;exitX=1;exitY=0.1;exitDx=0;exitDy=0;exitPerimeter=0;entryPerimeter=0;" edge="1" parent="1">
          <mxGeometry relative="1" as="geometry">
            <mxPoint x="1250" y="2449.2200000000003" as="sourcePoint" />
            <mxPoint x="1440" y="2449.2200000000003" as="targetPoint" />
          </mxGeometry>
        </mxCell>
        <mxCell id="I2EmGqrL0BdVojSCtv7N-47" value="Передача данных" style="text;html=1;strokeColor=none;fillColor=none;align=center;verticalAlign=middle;whiteSpace=wrap;rounded=0;" vertex="1" parent="1">
          <mxGeometry x="1280" y="2419.2200000000003" width="130" height="30" as="geometry" />
        </mxCell>
        <mxCell id="I2EmGqrL0BdVojSCtv7N-48" value="" style="rounded=0;whiteSpace=wrap;html=1;" vertex="1" parent="1">
          <mxGeometry x="1440" y="2430" width="10" height="220" as="geometry" />
        </mxCell>
        <mxCell id="I2EmGqrL0BdVojSCtv7N-49" value="" style="rounded=0;whiteSpace=wrap;html=1;" vertex="1" parent="1">
          <mxGeometry x="1640" y="2480" width="10" height="140" as="geometry" />
        </mxCell>
        <mxCell id="I2EmGqrL0BdVojSCtv7N-50" style="edgeStyle=orthogonalEdgeStyle;rounded=0;orthogonalLoop=1;jettySize=auto;html=1;entryX=-0.007;entryY=0.1;entryDx=0;entryDy=0;exitX=1;exitY=0.1;exitDx=0;exitDy=0;exitPerimeter=0;entryPerimeter=0;" edge="1" parent="1">
          <mxGeometry relative="1" as="geometry">
            <mxPoint x="1450" y="2528.95" as="sourcePoint" />
            <mxPoint x="1640" y="2528.95" as="targetPoint" />
          </mxGeometry>
        </mxCell>
        <mxCell id="I2EmGqrL0BdVojSCtv7N-51" value="Запрос на редактирование" style="text;html=1;strokeColor=none;fillColor=none;align=center;verticalAlign=middle;whiteSpace=wrap;rounded=0;" vertex="1" parent="1">
          <mxGeometry x="1480" y="2498.95" width="130" height="30" as="geometry" />
        </mxCell>
        <mxCell id="I2EmGqrL0BdVojSCtv7N-52" value="Сохранение в БД" style="text;html=1;strokeColor=none;fillColor=none;align=center;verticalAlign=middle;whiteSpace=wrap;rounded=0;" vertex="1" parent="1">
          <mxGeometry x="1680" y="2530" width="130" height="30" as="geometry" />
        </mxCell>
        <mxCell id="I2EmGqrL0BdVojSCtv7N-53" style="edgeStyle=orthogonalEdgeStyle;rounded=0;orthogonalLoop=1;jettySize=auto;html=1;exitX=1;exitY=0.1;exitDx=0;exitDy=0;exitPerimeter=0;" edge="1" parent="1">
          <mxGeometry relative="1" as="geometry">
            <mxPoint x="1660" y="2559.85" as="sourcePoint" />
            <mxPoint x="1660" y="2580.2200000000003" as="targetPoint" />
            <Array as="points">
              <mxPoint x="1750" y="2560.2200000000003" />
              <mxPoint x="1750" y="2580.2200000000003" />
              <mxPoint x="1660" y="2580.2200000000003" />
            </Array>
          </mxGeometry>
        </mxCell>
        <mxCell id="I2EmGqrL0BdVojSCtv7N-54" value="" style="rounded=0;whiteSpace=wrap;html=1;" vertex="1" parent="1">
          <mxGeometry x="1644" y="2545" width="16" height="60" as="geometry" />
        </mxCell>
        <mxCell id="I2EmGqrL0BdVojSCtv7N-55" value="Результат" style="text;html=1;strokeColor=none;fillColor=none;align=center;verticalAlign=middle;whiteSpace=wrap;rounded=0;" vertex="1" parent="1">
          <mxGeometry x="1480" y="2581" width="130" height="30" as="geometry" />
        </mxCell>
        <mxCell id="I2EmGqrL0BdVojSCtv7N-56" style="edgeStyle=orthogonalEdgeStyle;rounded=0;orthogonalLoop=1;jettySize=auto;html=1;exitX=0;exitY=0.75;exitDx=0;exitDy=0;entryX=0.992;entryY=0.899;entryDx=0;entryDy=0;entryPerimeter=0;dashed=1;endArrow=open;endFill=0;" edge="1" parent="1">
          <mxGeometry relative="1" as="geometry">
            <mxPoint x="1640" y="2611" as="sourcePoint" />
            <mxPoint x="1450" y="2611" as="targetPoint" />
          </mxGeometry>
        </mxCell>
        <mxCell id="I2EmGqrL0BdVojSCtv7N-57" value="Сообщение об успешном выполнении" style="text;html=1;strokeColor=none;fillColor=none;align=center;verticalAlign=middle;whiteSpace=wrap;rounded=0;" vertex="1" parent="1">
          <mxGeometry x="1280" y="2588.95" width="130" height="30" as="geometry" />
        </mxCell>
        <mxCell id="I2EmGqrL0BdVojSCtv7N-58" style="edgeStyle=orthogonalEdgeStyle;rounded=0;orthogonalLoop=1;jettySize=auto;html=1;exitX=0;exitY=0.75;exitDx=0;exitDy=0;entryX=0.992;entryY=0.899;entryDx=0;entryDy=0;entryPerimeter=0;dashed=1;endArrow=open;endFill=0;" edge="1" parent="1">
          <mxGeometry relative="1" as="geometry">
            <mxPoint x="1440" y="2618.95" as="sourcePoint" />
            <mxPoint x="1250" y="2618.95" as="targetPoint" />
          </mxGeometry>
        </mxCell>
        <mxCell id="I2EmGqrL0BdVojSCtv7N-59" value="Отображение сообщения" style="text;html=1;strokeColor=none;fillColor=none;align=center;verticalAlign=middle;whiteSpace=wrap;rounded=0;" vertex="1" parent="1">
          <mxGeometry x="1080" y="2600" width="130" height="30" as="geometry" />
        </mxCell>
        <mxCell id="I2EmGqrL0BdVojSCtv7N-60" style="edgeStyle=orthogonalEdgeStyle;rounded=0;orthogonalLoop=1;jettySize=auto;html=1;exitX=0;exitY=0.75;exitDx=0;exitDy=0;entryX=0.992;entryY=0.899;entryDx=0;entryDy=0;entryPerimeter=0;dashed=1;endArrow=open;endFill=0;" edge="1" parent="1">
          <mxGeometry relative="1" as="geometry">
            <mxPoint x="1240" y="2630" as="sourcePoint" />
            <mxPoint x="1050" y="2630" as="targetPoint" />
          </mxGeometry>
        </mxCell>
        <mxCell id="I2EmGqrL0BdVojSCtv7N-61" style="edgeStyle=orthogonalEdgeStyle;rounded=0;orthogonalLoop=1;jettySize=auto;html=1;entryX=0.5;entryY=0;entryDx=0;entryDy=0;dashed=1;endArrow=none;endFill=0;" edge="1" parent="1">
          <mxGeometry relative="1" as="geometry">
            <mxPoint x="1244.6699999999998" y="2210" as="sourcePoint" />
            <mxPoint x="1244.84" y="2290" as="targetPoint" />
          </mxGeometry>
        </mxCell>
        <mxCell id="I2EmGqrL0BdVojSCtv7N-62" style="edgeStyle=orthogonalEdgeStyle;rounded=0;orthogonalLoop=1;jettySize=auto;html=1;entryX=0.5;entryY=0;entryDx=0;entryDy=0;dashed=1;endArrow=none;endFill=0;" edge="1" parent="1">
          <mxGeometry relative="1" as="geometry">
            <mxPoint x="1444.6799999999998" y="2210" as="sourcePoint" />
            <mxPoint x="1444.85" y="2290" as="targetPoint" />
          </mxGeometry>
        </mxCell>
        <mxCell id="I2EmGqrL0BdVojSCtv7N-63" style="edgeStyle=orthogonalEdgeStyle;rounded=0;orthogonalLoop=1;jettySize=auto;html=1;entryX=0.5;entryY=0;entryDx=0;entryDy=0;dashed=1;endArrow=none;endFill=0;" edge="1" parent="1" target="I2EmGqrL0BdVojSCtv7N-49">
          <mxGeometry relative="1" as="geometry">
            <mxPoint x="1644.6299999999999" y="2200" as="sourcePoint" />
            <mxPoint x="1644.8" y="2280" as="targetPoint" />
          </mxGeometry>
        </mxCell>
        <mxCell id="I2EmGqrL0BdVojSCtv7N-64" style="edgeStyle=orthogonalEdgeStyle;rounded=0;orthogonalLoop=1;jettySize=auto;html=1;dashed=1;endArrow=none;endFill=0;exitX=0.5;exitY=1;exitDx=0;exitDy=0;entryX=0.5;entryY=0;entryDx=0;entryDy=0;" edge="1" parent="1" source="I2EmGqrL0BdVojSCtv7N-37" target="I2EmGqrL0BdVojSCtv7N-48">
          <mxGeometry relative="1" as="geometry">
            <mxPoint x="1509.9999999999998" y="2240" as="sourcePoint" />
            <mxPoint x="1510" y="2310" as="targetPoint" />
          </mxGeometry>
        </mxCell>
        <mxCell id="I2EmGqrL0BdVojSCtv7N-65" value="" style="rounded=0;whiteSpace=wrap;html=1;" vertex="1" parent="1">
          <mxGeometry x="1640" y="2290" width="10" height="120" as="geometry" />
        </mxCell>
        <mxCell id="I2EmGqrL0BdVojSCtv7N-66" value="" style="rounded=0;whiteSpace=wrap;html=1;" vertex="1" parent="1">
          <mxGeometry x="1644" y="2330" width="16" height="60" as="geometry" />
        </mxCell>
        <mxCell id="I2EmGqrL0BdVojSCtv7N-67" style="edgeStyle=orthogonalEdgeStyle;rounded=0;orthogonalLoop=1;jettySize=auto;html=1;exitX=1;exitY=0.1;exitDx=0;exitDy=0;exitPerimeter=0;" edge="1" parent="1">
          <mxGeometry relative="1" as="geometry">
            <mxPoint x="1660" y="2339.85" as="sourcePoint" />
            <mxPoint x="1660" y="2360.2200000000003" as="targetPoint" />
            <Array as="points">
              <mxPoint x="1750" y="2340.2200000000003" />
              <mxPoint x="1750" y="2360.2200000000003" />
              <mxPoint x="1660" y="2360.2200000000003" />
            </Array>
          </mxGeometry>
        </mxCell>
        <mxCell id="I2EmGqrL0BdVojSCtv7N-68" value="Выборка из БД" style="text;html=1;strokeColor=none;fillColor=none;align=center;verticalAlign=middle;whiteSpace=wrap;rounded=0;" vertex="1" parent="1">
          <mxGeometry x="1680" y="2310" width="130" height="30" as="geometry" />
        </mxCell>
        <mxCell id="I2EmGqrL0BdVojSCtv7N-69" style="edgeStyle=orthogonalEdgeStyle;rounded=0;orthogonalLoop=1;jettySize=auto;html=1;entryX=-0.007;entryY=0.1;entryDx=0;entryDy=0;exitX=1;exitY=0.1;exitDx=0;exitDy=0;exitPerimeter=0;entryPerimeter=0;" edge="1" parent="1">
          <mxGeometry relative="1" as="geometry">
            <mxPoint x="1450" y="2329.05" as="sourcePoint" />
            <mxPoint x="1640" y="2329.05" as="targetPoint" />
          </mxGeometry>
        </mxCell>
        <mxCell id="I2EmGqrL0BdVojSCtv7N-70" value="Получение информации о товарах" style="text;html=1;strokeColor=none;fillColor=none;align=center;verticalAlign=middle;whiteSpace=wrap;rounded=0;" vertex="1" parent="1">
          <mxGeometry x="1473" y="2300" width="140" height="30" as="geometry" />
        </mxCell>
        <mxCell id="I2EmGqrL0BdVojSCtv7N-71" value="Результат" style="text;html=1;strokeColor=none;fillColor=none;align=center;verticalAlign=middle;whiteSpace=wrap;rounded=0;" vertex="1" parent="1">
          <mxGeometry x="1478" y="2350" width="130" height="30" as="geometry" />
        </mxCell>
        <mxCell id="I2EmGqrL0BdVojSCtv7N-72" style="edgeStyle=orthogonalEdgeStyle;rounded=0;orthogonalLoop=1;jettySize=auto;html=1;entryX=0.995;entryY=0.851;entryDx=0;entryDy=0;entryPerimeter=0;dashed=1;endArrow=open;endFill=0;exitX=0;exitY=0.75;exitDx=0;exitDy=0;" edge="1" parent="1" source="I2EmGqrL0BdVojSCtv7N-65">
          <mxGeometry relative="1" as="geometry">
            <mxPoint x="1620" y="2390" as="sourcePoint" />
            <mxPoint x="1448" y="2380" as="targetPoint" />
            <Array as="points" />
          </mxGeometry>
        </mxCell>
        <mxCell id="I2EmGqrL0BdVojSCtv7N-73" value="" style="rounded=0;whiteSpace=wrap;html=1;" vertex="1" parent="1">
          <mxGeometry x="1241" y="2430" width="10" height="220" as="geometry" />
        </mxCell>
        <mxCell id="I2EmGqrL0BdVojSCtv7N-74" style="edgeStyle=orthogonalEdgeStyle;rounded=0;orthogonalLoop=1;jettySize=auto;html=1;exitX=1;exitY=0.1;exitDx=0;exitDy=0;exitPerimeter=0;" edge="1" parent="1">
          <mxGeometry relative="1" as="geometry">
            <mxPoint x="1450" y="2459.85" as="sourcePoint" />
            <mxPoint x="1450" y="2480.2200000000003" as="targetPoint" />
            <Array as="points">
              <mxPoint x="1540" y="2460.2200000000003" />
              <mxPoint x="1540" y="2480.2200000000003" />
              <mxPoint x="1450" y="2480.2200000000003" />
            </Array>
          </mxGeometry>
        </mxCell>
        <mxCell id="I2EmGqrL0BdVojSCtv7N-75" value="Поверка корректности введённых данных" style="text;html=1;strokeColor=none;fillColor=none;align=center;verticalAlign=middle;whiteSpace=wrap;rounded=0;" vertex="1" parent="1">
          <mxGeometry x="1470" y="2430" width="130" height="30" as="geometry" />
        </mxCell>
      </root>
    </mxGraphModel>
  </diagram>
</mxfile>
